<?xml version="1.0" encoding="UTF-8"?>
<svg version="1.1" xmlns="http://www.w3.org/2000/svg" width="342" height="114">
<path d="M0 0 C13.53 0 27.06 0 41 0 C41 13.86 41 27.72 41 42 C27.47 42 13.94 42 0 42 C0 28.14 0 14.28 0 0 Z " fill="#0859DB" transform="translate(10,27)"/>
<path d="M0 0 C24.5 0 24.5 0 32.375 5.25 C36.99720119 10.09230601 38.1624617 14.03580316 38.375 20.5625 C38.18487698 26.60510568 36.63775783 30.09665981 32.6875 34.6875 C25.95633471 40.47943293 20.14251203 40.38162643 11.625 40.1875 C7.78875 40.125625 3.9525 40.06375 0 40 C0 26.8 0 13.6 0 0 Z M11 10 C11 16.93 11 23.86 11 31 C19.14663837 31.52677675 19.14663837 31.52677675 25 28 C27.34113009 24.98997559 27.41216607 21.72258458 27.328125 17.96875 C26.80947233 14.85683396 25.21445226 13.14932131 23 11 C19.88196601 9.25464401 19.88196601 9.25464401 11 10 Z " fill="#000000" transform="translate(176,27)"/>
<path d="M0 0 C8 0 8 0 10.05395508 1.40527344 C10.53759521 2.05012695 11.02123535 2.69498047 11.51953125 3.359375 C12.3403418 4.41511719 12.3403418 4.41511719 13.17773438 5.4921875 C13.98694336 6.60980469 13.98694336 6.60980469 14.8125 7.75 C15.37130859 8.47960938 15.93011719 9.20921875 16.50585938 9.9609375 C18.0284466 11.9571782 19.51748813 13.97392617 21 16 C21.99 17.32 22.98 18.64 24 20 C24.33 13.4 24.66 6.8 25 0 C28.3 0 31.6 0 35 0 C35 13.2 35 26.4 35 40 C27 40 27 40 24.71484375 38.34765625 C24.12832031 37.59355469 23.54179687 36.83945312 22.9375 36.0625 C21.96103516 34.84433594 21.96103516 34.84433594 20.96484375 33.6015625 C20.31644531 32.74304687 19.66804688 31.88453125 19 31 C18.32066406 30.14148438 17.64132812 29.28296875 16.94140625 28.3984375 C15.27235145 26.28273423 13.63316494 24.14352899 12 22 C11.67 27.94 11.34 33.88 11 40 C7.37 40 3.74 40 0 40 C0 26.8 0 13.6 0 0 Z " fill="#000000" transform="translate(253,27)"/>
<path d="M0 0 C9.9 0 19.8 0 30 0 C30 2.97 30 5.94 30 9 C23.73 9 17.46 9 11 9 C11 11.31 11 13.62 11 16 C16.61 16 22.22 16 28 16 C28 18.64 28 21.28 28 24 C22.39 24 16.78 24 11 24 C11 26.31 11 28.62 11 31 C17.27 31 23.54 31 30 31 C30 33.97 30 36.94 30 40 C20.1 40 10.2 40 0 40 C0 26.8 0 13.6 0 0 Z " fill="#000000" transform="translate(218,27)"/>
<path d="M0 0 C3.3 0 6.6 0 10 0 C10.01981934 0.80219971 10.03963867 1.60439941 10.06005859 2.4309082 C10.15519495 6.05844177 10.2649208 9.68539045 10.375 13.3125 C10.4059375 14.57513672 10.436875 15.83777344 10.46875 17.13867188 C10.50742188 18.34716797 10.54609375 19.55566406 10.5859375 20.80078125 C10.6173584 21.91622314 10.6487793 23.03166504 10.68115234 24.1809082 C10.805249 27.20368786 10.805249 27.20368786 13 30 C16.5 30.41666667 16.5 30.41666667 20 30 C22.75439516 27.24560484 22.30989276 25.53396797 22.4140625 21.6796875 C22.45273438 20.42285156 22.49140625 19.16601562 22.53125 17.87109375 C22.5621875 16.55238281 22.593125 15.23367187 22.625 13.875 C22.66318029 12.53513082 22.70223206 11.19528617 22.7421875 9.85546875 C22.8367203 6.57045381 22.92227156 3.28544862 23 0 C26.63 0 30.26 0 34 0 C34.08751499 4.52071021 34.1405661 9.0412007 34.1875 13.5625 C34.21263672 14.83931641 34.23777344 16.11613281 34.26367188 17.43164062 C34.37006797 31.08580647 34.37006797 31.08580647 29.5 36.7421875 C23.73024358 41.09955563 19.07005337 41.74366487 12 41 C5.97964137 39.20517417 3.12075861 36.49737921 0 31 C-0.45410156 27.47314453 -0.45410156 27.47314453 -0.390625 23.6328125 C-0.38496521 22.95322479 -0.37930542 22.27363708 -0.37347412 21.57345581 C-0.35125351 19.42322451 -0.30109198 17.27471926 -0.25 15.125 C-0.22991614 13.6588784 -0.21166868 12.19273042 -0.1953125 10.7265625 C-0.15143811 7.15048992 -0.08251443 3.57541369 0 0 Z " fill="#000000" transform="translate(137,27)"/>
<path d="M0 0 C2.3125 1.6875 2.3125 1.6875 4.3125 4.6875 C2.3325 6.6675 0.3525 8.6475 -1.6875 10.6875 C-2.368125 10.378125 -3.04875 10.06875 -3.75 9.75 C-7.05715912 8.55379351 -10.20295878 8.09744603 -13.6875 7.6875 C-13.6875 9.0075 -13.6875 10.3275 -13.6875 11.6875 C-13.09582031 11.86925781 -12.50414063 12.05101562 -11.89453125 12.23828125 C-6.12119143 14.07482491 -0.6893586 15.88526967 3.3125 20.6875 C4.81900776 25.20702327 5.05813919 29.04709378 3.0625 33.4375 C0.24489414 37.0601361 -2.21620897 38.79006503 -6.6875 39.6875 C-13.7538125 40.35682463 -19.84834417 40.06320825 -25.6875 35.6875 C-26.3475 34.6975 -27.0075 33.7075 -27.6875 32.6875 C-25.7075 30.7075 -23.7275 28.7275 -21.6875 26.6875 C-16.9375 28.5625 -16.9375 28.5625 -14.6875 29.6875 C-12.3545134 29.72772391 -10.02043334 29.73070247 -7.6875 29.6875 C-7.3575 28.3675 -7.0275 27.0475 -6.6875 25.6875 C-7.25597656 25.51734375 -7.82445313 25.3471875 -8.41015625 25.171875 C-20.47027635 21.38672879 -20.47027635 21.38672879 -24.125 16.9375 C-25.44010318 11.67708729 -25.40159237 8.06467813 -22.9375 3.3125 C-17.26719674 -3.3028538 -7.74730143 -2.75751407 0 0 Z " fill="#000000" transform="translate(93.6875,28.3125)"/>
<path d="M0 0 C11.22 0 22.44 0 34 0 C34 3.3 34 6.6 34 10 C30.04 10 26.08 10 22 10 C22 19.9 22 29.8 22 40 C18.7 40 15.4 40 12 40 C12 30.1 12 20.2 12 10 C8.04 10 4.08 10 0 10 C0 6.7 0 3.4 0 0 Z " fill="#000000" transform="translate(292,27)"/>
<path d="M0 0 C11.22 0 22.44 0 34 0 C34 3.3 34 6.6 34 10 C30.04 10 26.08 10 22 10 C22 19.9 22 29.8 22 40 C18.7 40 15.4 40 12 40 C12 30.1 12 20.2 12 10 C8.04 10 4.08 10 0 10 C0 6.7 0 3.4 0 0 Z " fill="#000000" transform="translate(99,27)"/>
<path d="M0 0 C0.79921875 0.00902344 1.5984375 0.01804688 2.421875 0.02734375 C3.02515625 0.03894531 3.6284375 0.05054688 4.25 0.0625 C4.25 1.7125 4.25 3.3625 4.25 5.0625 C1.61 5.0625 -1.03 5.0625 -3.75 5.0625 C-1.24316923 8.82274616 1.11493934 9.45442086 5.25 11.0625 C5.61548223 18.49397208 5.61548223 18.49397208 4.125 20.8125 C1.4095129 22.62282474 -0.71261285 22.35402862 -3.9375 22.25 C-5.02417969 22.22292969 -6.11085938 22.19585937 -7.23046875 22.16796875 C-8.47763672 22.11576172 -8.47763672 22.11576172 -9.75 22.0625 C-10.08 20.4125 -10.41 18.7625 -10.75 17.0625 C-7.78 17.0625 -4.81 17.0625 -1.75 17.0625 C-2.59681777 14.80697332 -2.59681777 14.80697332 -5.1875 14.125 C-7.75 13.0625 -7.75 13.0625 -9.75 10.0625 C-10.08333333 3.72916667 -10.08333333 3.72916667 -8.75 1.0625 C-5.81699331 0.0307565 -3.08787164 -0.04540988 0 0 Z " fill="#DFEDFB" transform="translate(32.75,36.9375)"/>
<path d="M0 0 C1.32 0 2.64 0 4 0 C4.99 2.31 5.98 4.62 7 7 C7.33 4.69 7.66 2.38 8 0 C9.43655854 -0.08131463 10.8744483 -0.13933559 12.3125 -0.1875 C13.51326172 -0.23970703 13.51326172 -0.23970703 14.73828125 -0.29296875 C17 0 17 0 18.76953125 1.32421875 C20.6691714 3.91134772 20.38880875 5.88952999 20 9 C18.89453125 10.67578125 18.89453125 10.67578125 17 12 C13.86328125 12.29296875 13.86328125 12.29296875 10.3125 12.1875 C8.54326172 12.14689453 8.54326172 12.14689453 6.73828125 12.10546875 C5.83464844 12.07066406 4.93101562 12.03585938 4 12 C4 11.34 4 10.68 4 10 C2.68 10 1.36 10 0 10 C0 10.66 0 11.32 0 12 C-1.32 12 -2.64 12 -4 12 C-3.33501617 7.61110675 -1.81242323 4.0188515 0 0 Z M12 3 C12 4.98 12 6.96 12 9 C13.32 8.67 14.64 8.34 16 8 C15.67 6.35 15.34 4.7 15 3 C14.01 3 13.02 3 12 3 Z " fill="#000000" transform="translate(234,72)"/>
<path d="M0 0 C3.83736322 0.95934081 4.59660228 1.23609263 7 4 C7.6496875 3.01 7.6496875 3.01 8.3125 2 C8.869375 1.34 9.42625 0.68 10 0 C10.99 0 11.98 0 13 0 C13 3.96 13 7.92 13 12 C11.68 12 10.36 12 9 12 C8.67 11.34 8.34 10.68 8 10 C7.01 10 6.02 10 5 10 C4.67 10.66 4.34 11.32 4 12 C2.68 12 1.36 12 0 12 C0 8.04 0 4.08 0 0 Z " fill="#000000" transform="translate(255,72)"/>
<path d="M0 0 C4 1 4 1 6 3 C6.33 2.01 6.66 1.02 7 0 C8.32 0 9.64 0 11 0 C11 3.96 11 7.92 11 12 C9.68 12 8.36 12 7 12 C6.34 11.01 5.68 10.02 5 9 C4.67 9.99 4.34 10.98 4 12 C2.68 12 1.36 12 0 12 C0 8.04 0 4.08 0 0 Z " fill="#000000" transform="translate(274,72)"/>
<path d="M0 0 C1.32 0 2.64 0 4 0 C4 3.96 4 7.92 4 12 C2.68 12 1.36 12 0 12 C0 8.04 0 4.08 0 0 Z " fill="#000000" transform="translate(269,72)"/>
</svg>
